<?xml version="1.0" standalone="no"?>
<!DOCTYPE svg PUBLIC "-//W3C//DTD SVG 20010904//EN"
 "http://www.w3.org/TR/2001/REC-SVG-20010904/DTD/svg10.dtd">
<svg version="1.0" xmlns="http://www.w3.org/2000/svg"
 width="512.000000pt" height="512.000000pt" viewBox="0 0 512.000000 512.000000"
 preserveAspectRatio="xMidYMid meet">
<metadata>
Created by potrace 1.11, written by Peter Selinger 2001-2013
</metadata>
<g transform="translate(0.000000,512.000000) scale(0.100000,-0.100000)"
fill="#000000" stroke="none">
<path d="M1242 4713 c-40 -69 -98 -170 -223 -388 -38 -66 -73 -127 -79 -135
-8 -14 -61 -105 -100 -175 -10 -16 -39 -68 -67 -115 -27 -47 -147 -256 -268
-465 -120 -209 -256 -444 -302 -523 -45 -79 -83 -145 -83 -148 0 -2 -10 -21
-23 -42 -13 -20 -40 -65 -61 -99 l-37 -63 63 -110 c35 -61 68 -118 73 -128 6
-9 28 -49 50 -87 22 -39 44 -78 50 -87 5 -9 53 -93 106 -185 54 -92 137 -238
186 -323 49 -85 152 -263 228 -395 76 -132 149 -260 163 -285 14 -25 36 -62
49 -82 12 -21 23 -40 23 -43 0 -4 52 -94 90 -155 13 -21 69 -118 93 -160 11
-19 39 -69 64 -112 l44 -76 1280 1 1280 2 101 175 c125 217 296 514 416 725
51 88 96 167 101 175 24 38 216 375 220 384 2 6 9 18 16 26 7 8 26 40 42 70
17 30 79 141 140 245 60 105 121 210 135 235 14 25 44 77 67 116 l41 71 -131
229 c-73 126 -197 341 -275 477 -79 137 -144 253 -144 258 0 5 -4 9 -10 9 -5
0 -10 4 -10 9 0 5 -41 80 -92 168 -50 87 -100 174 -111 193 -11 19 -41 72 -68
118 -27 45 -49 87 -49 92 0 6 -4 10 -10 10 -5 0 -10 4 -10 9 0 8 -126 232
-185 331 -9 14 -43 72 -76 130 -33 58 -71 123 -84 145 l-23 40 -1281 3 -1280
2 -39 -67z"/>
</g>
</svg>
